<?xml version="1.0" standalone="no"?>
<!DOCTYPE svg PUBLIC "-//W3C//DTD SVG 20010904//EN"
 "http://www.w3.org/TR/2001/REC-SVG-20010904/DTD/svg10.dtd">
<svg version="1.0" xmlns="http://www.w3.org/2000/svg"
 width="1024.000000pt" height="1024.000000pt" viewBox="0 0 1024.000000 1024.000000"
 preserveAspectRatio="xMidYMid meet">

<g transform="translate(0.000000,1024.000000) scale(0.100000,-0.100000)"
fill="#000000" stroke="none">
<path d="M5085 9571 c-44 -11 -70 -30 -91 -65 -17 -28 -19 -52 -18 -221 1
-104 9 -282 18 -395 9 -113 16 -239 16 -281 0 -42 7 -98 15 -124 8 -27 12 -52
9 -55 -3 -3 -375 -8 -827 -11 -796 -6 -905 -11 -993 -39 -71 -24 -91 -77 -123
-330 -31 -244 -34 -410 -17 -825 32 -749 36 -954 46 -1995 12 -1243 18 -1439
46 -1496 22 -45 55 -56 85 -28 16 14 28 15 81 8 35 -4 158 -8 273 -9 193 -1
219 -3 325 -28 96 -23 120 -33 142 -57 l28 -30 -19 -47 c-238 -595 -262 -662
-451 -1233 -151 -454 -270 -788 -361 -1007 -66 -158 -74 -211 -39 -256 28 -35
81 -51 144 -43 87 12 206 48 235 71 17 15 43 62 70 132 24 59 50 113 57 119 7
6 64 16 126 23 118 13 479 69 485 75 2 2 -65 1 -149 -2 -212 -7 -292 2 -349
38 l-46 28 63 184 c166 479 460 1437 593 1934 10 36 17 44 59 62 102 44 202
65 312 65 133 0 183 -14 233 -64 l39 -38 -8 -103 c-14 -184 -8 -1103 9 -1473
9 -192 20 -469 23 -614 7 -258 8 -264 31 -291 52 -62 164 -64 306 -8 65 26 85
39 96 63 13 26 11 100 -13 610 -14 319 -42 848 -62 1175 -19 327 -33 624 -32
660 l3 65 40 13 c59 20 388 9 580 -20 l150 -23 21 -180 c12 -99 29 -223 38
-275 52 -300 186 -701 441 -1315 64 -154 126 -304 137 -333 l21 -53 -20 -27
-20 -27 -252 -7 c-306 -9 -504 -29 -676 -68 -71 -17 -163 -37 -202 -47 -40 -9
-73 -20 -73 -26 0 -5 11 -6 28 -1 15 5 279 9 587 9 308 0 567 4 576 8 11 6 24
-4 49 -39 48 -68 149 -173 181 -190 34 -17 233 -19 310 -3 64 14 121 63 144
124 21 53 12 51 297 65 154 8 295 7 485 0 274 -12 368 -8 399 15 16 11 15 14
-12 28 -65 33 -218 54 -734 97 -135 12 -285 28 -334 36 -99 16 -198 59 -239
102 -46 50 -264 559 -407 951 -92 253 -205 600 -284 872 l-66 227 19 43 c21
50 53 83 95 99 18 7 135 10 335 9 364 -2 559 14 594 49 31 31 26 94 -17 247
-20 72 -43 182 -51 245 -22 177 -95 1046 -140 1665 -55 774 -58 859 -61 1620
-2 402 -6 740 -9 751 -14 59 -153 68 -1092 69 -517 0 -785 3 -792 10 -16 16
-16 801 0 959 l13 129 -28 23 c-24 21 -37 24 -110 24 -46 0 -123 2 -172 5 -49
2 -102 1 -119 -4z m229 -143 c8 -13 20 -43 25 -68 17 -69 43 -817 30 -841 -22
-42 -115 -53 -148 -18 -24 26 -28 47 -42 254 -14 201 -6 525 14 603 8 29 22
61 32 72 25 27 71 26 89 -2z m270 -1174 l48 -17 -4 -122 c-1 -68 -6 -126 -9
-130 -15 -14 -273 -35 -414 -33 -82 1 -123 3 -90 5 190 9 367 36 349 52 -5 5
-70 19 -144 32 -104 17 -173 23 -297 23 -90 0 -166 -3 -169 -7 -13 -13 28 -59
69 -78 l42 -19 -53 0 c-44 0 -57 4 -77 26 -25 27 -42 87 -48 176 l-4 56 96 8
c53 4 177 15 276 24 243 23 369 24 429 4z m-1037 -27 c51 1 52 1 42 -24 -13
-35 -11 -278 3 -324 21 -73 13 -72 315 -59 147 6 381 10 518 8 240 -3 252 -2
298 19 60 28 72 55 61 143 -17 135 -5 189 47 216 36 18 217 34 394 34 211 0
879 -31 886 -42 6 -9 9 -93 29 -698 58 -1765 123 -2802 211 -3349 11 -69 22
-135 26 -149 6 -23 4 -24 -35 -17 -68 11 -340 0 -489 -21 -61 -9 -64 3 -61
209 3 151 1 176 -15 200 -39 60 -31 59 -464 65 -425 5 -690 -4 -1088 -40 -145
-12 -376 -23 -625 -28 -407 -8 -556 -21 -728 -60 -179 -42 -190 -67 -146 -319
8 -46 12 -86 9 -90 -10 -9 -118 -6 -242 9 l-112 13 -6 41 c-3 22 -7 437 -10
921 -2 484 -8 1254 -12 1710 -10 878 -3 1465 17 1552 6 28 18 57 26 64 26 21
238 28 679 21 231 -4 443 -6 472 -5z m1964 -3953 c9 -3 23 -28 33 -62 22 -77
56 -228 56 -252 0 -27 -43 -37 -203 -50 -145 -11 -970 -14 -1035 -4 -46 7
-354 -11 -552 -33 -178 -19 -360 -21 -590 -4 -253 18 -235 12 -248 72 -18 76
-15 153 6 178 41 51 278 85 712 101 157 6 350 17 430 25 143 14 486 33 690 39
133 4 680 -4 701 -10z m4 -681 c26 -119 117 -412 215 -693 104 -296 137 -401
221 -710 11 -41 69 -176 129 -300 120 -249 136 -293 145 -395 l6 -70 -31 -14
c-17 -7 -33 -11 -35 -9 -3 2 -27 58 -54 124 -27 65 -90 208 -140 317 -155 337
-203 464 -290 773 -62 222 -169 652 -209 841 l-30 142 27 10 c38 14 40 13 46
-16z m-1140 -169 c4 -42 4 -246 1 -453 -9 -454 9 -920 50 -1352 6 -63 5 -68
-16 -79 -44 -24 -51 3 -70 260 -26 340 -21 1500 6 1663 10 59 22 44 29 -39z
m-1090 19 c15 -20 24 13 -127 -473 -60 -195 -138 -448 -173 -561 -76 -246
-135 -411 -265 -744 -53 -137 -99 -255 -101 -262 -3 -8 -9 -8 -23 3 -19 13
-18 19 38 201 86 278 339 1034 464 1388 157 444 165 465 170 465 3 0 10 -8 17
-17z"/>
<path d="M5247 9360 c-16 -55 -20 -220 -7 -297 26 -163 45 -159 56 13 7 112
-5 218 -30 279 l-12 30 -7 -25z"/>
<path d="M5228 8873 c-24 -6 -22 -22 7 -58 29 -35 46 -26 48 26 2 35 -13 44
-55 32z"/>
<path d="M5140 8185 c-8 -2 -68 -11 -133 -21 -92 -14 -125 -16 -147 -7 -27 10
-30 9 -30 -8 0 -13 12 -25 35 -35 32 -13 51 -13 172 3 120 15 148 15 232 3
191 -27 306 -24 318 6 12 31 -18 43 -75 31 -42 -9 -72 -8 -155 6 -116 19 -195
27 -217 22z"/>
<path d="M3655 7613 c-55 -76 -153 -281 -175 -368 -57 -221 -66 -656 -20 -915
21 -117 22 -143 16 -405 -19 -852 -19 -826 -2 -925 23 -140 33 -170 56 -170
15 0 20 7 20 29 0 45 48 314 75 422 30 117 82 269 142 412 25 59 46 107 47
107 0 0 2 -107 4 -237 2 -189 6 -243 18 -267 8 -17 22 -96 30 -175 9 -80 20
-153 25 -163 6 -12 21 -18 44 -18 67 0 116 65 214 285 121 270 231 472 452
832 67 109 169 279 227 378 126 216 269 430 415 620 l108 140 -124 -126 c-155
-158 -192 -210 -317 -445 -87 -163 -110 -198 -165 -251 -55 -53 -75 -84 -134
-200 -39 -77 -83 -151 -101 -168 -17 -16 -51 -70 -75 -120 -23 -49 -64 -115
-89 -145 -58 -69 -111 -171 -171 -330 -95 -251 -140 -337 -194 -364 -36 -19
-43 -12 -65 64 -28 93 -39 295 -33 595 l6 280 50 100 c84 167 215 365 444 673
42 57 77 106 77 108 0 2 -9 4 -19 4 -23 0 -82 -68 -181 -210 -41 -58 -100
-134 -132 -168 -46 -50 -74 -95 -128 -208 -39 -79 -74 -144 -79 -144 -44 0
-18 252 69 680 41 203 107 455 140 541 11 27 20 52 20 54 0 5 -50 -15 -62 -25
-11 -8 -84 -286 -122 -465 -70 -323 -133 -722 -143 -895 -6 -102 -7 -108 -54
-196 -27 -50 -67 -145 -89 -212 -22 -67 -51 -139 -65 -160 -19 -28 -29 -66
-41 -152 -20 -134 -28 -160 -50 -160 -18 0 -17 54 7 535 38 780 115 1228 273
1601 40 95 56 145 56 177 0 86 -43 64 -66 -33 -8 -36 -46 -159 -84 -275 -61
-186 -93 -310 -130 -507 -11 -56 -30 -88 -52 -88 -17 0 -3 266 26 494 42 325
85 482 147 542 27 26 32 27 61 16 42 -15 46 -9 15 22 -42 42 -80 35 -122 -21z"/>
<path d="M4764 5794 c-104 -102 -281 -515 -318 -742 -22 -129 -30 -242 -18
-242 11 0 106 173 117 213 6 19 3 18 -20 -8 l-26 -30 4 75 c8 117 56 248 194
519 68 133 122 248 121 253 -2 6 -26 -11 -54 -38z"/>
<path d="M6216 4203 c-4 -16 -9 -36 -12 -45 -5 -17 5 -18 118 -18 140 0 168 8
111 33 -31 13 -189 57 -206 57 -3 0 -8 -12 -11 -27z"/>
<path d="M4555 4080 c-22 -25 -17 -30 37 -41 53 -10 173 -3 378 22 85 10 160
20 165 20 6 1 -8 5 -30 10 -22 4 -151 8 -286 8 -234 1 -247 0 -264 -19z"/>
<path d="M6329 4063 c-10 -2 -19 -13 -22 -24 -5 -18 -16 -19 -269 -19 -280 0
-465 -10 -669 -36 -135 -17 -165 -27 -139 -44 20 -13 357 -13 650 1 174 8 270
7 368 -1 129 -11 212 -7 212 10 0 5 -12 22 -26 39 -27 32 -25 51 6 51 28 0 33
17 7 24 -24 6 -93 6 -118 -1z"/>
<path d="M4215 4011 c-76 -3 -130 -10 -130 -16 0 -5 18 -19 40 -30 36 -18 69
-20 325 -26 269 -6 286 -5 304 12 11 10 17 21 13 25 -30 30 -298 47 -552 35z"/>
<path d="M1895 7311 c-56 -23 -80 -102 -70 -226 10 -119 71 -474 104 -605 16
-63 44 -169 61 -235 24 -88 29 -120 20 -123 -28 -10 -50 -43 -50 -77 0 -19 16
-73 35 -120 59 -143 99 -294 200 -754 44 -204 44 -205 25 -223 -41 -38 -16
-105 67 -178 31 -27 55 -40 74 -40 16 0 29 -3 29 -7 0 -5 4 -46 10 -93 5 -47
23 -245 40 -440 70 -812 118 -1201 251 -2000 93 -565 129 -786 129 -807 0 -10
-7 -10 -27 -2 -30 11 -103 8 -353 -17 -80 -8 -239 -19 -355 -24 -231 -11 -470
-38 -670 -76 -218 -40 -328 -68 -333 -83 -4 -11 3 -13 29 -7 98 19 504 48 799
56 362 9 743 44 900 81 19 5 27 -56 35 -276 12 -312 39 -380 148 -377 41 1
147 38 192 68 54 36 69 122 36 210 -17 44 -71 325 -71 369 0 12 13 15 54 15
63 0 73 9 48 40 -13 16 -32 24 -69 27 l-51 5 -11 73 c-33 221 -51 422 -96
1030 -40 549 -54 697 -95 1026 -17 130 -48 425 -70 655 -42 434 -57 577 -66
606 -4 12 12 24 63 49 103 50 123 66 123 99 0 29 -16 52 -49 70 -15 7 -19 27
-24 107 -3 54 -18 226 -33 383 -14 157 -28 362 -29 455 -1 94 -3 177 -4 186
-2 25 -40 59 -65 59 -30 0 -23 -26 -130 527 -49 258 -89 441 -99 456 -16 25
-19 26 -119 23 -57 -1 -109 -5 -115 -9 -7 -5 -16 -26 -19 -48 -7 -42 -15 -46
-54 -24 -14 8 -35 14 -48 15 -14 0 -27 9 -34 25 -6 14 -21 28 -33 31 -12 3
-36 25 -52 48 -18 26 -49 52 -75 64 -47 23 -70 26 -103 13z m126 -227 c80 -40
109 -70 109 -115 l0 -39 63 3 62 2 18 -37 c10 -20 25 -76 34 -124 12 -67 18
-82 26 -69 13 24 2 141 -17 187 -20 46 -20 58 -1 58 23 0 62 -69 80 -145 22
-90 65 -228 74 -238 7 -7 -12 194 -24 256 -3 17 -16 60 -27 95 -19 61 -20 64
-2 77 31 23 52 17 79 -23 32 -48 61 -133 82 -241 17 -91 25 -392 10 -443 -11
-43 -56 -60 -151 -59 -134 1 -139 9 -212 370 -43 216 -63 288 -64 231 0 -61
31 -419 40 -455 14 -58 12 -111 -4 -124 -21 -18 -90 3 -115 35 -24 31 -93 243
-126 389 -32 138 -52 378 -36 418 13 32 23 31 102 -9z m627 -1026 c7 -14 37
-174 67 -354 54 -323 55 -328 37 -363 -27 -56 -50 -63 -182 -55 -63 4 -131 6
-151 5 -29 -1 -40 4 -54 25 -31 48 -53 131 -90 346 -20 117 -46 238 -56 268
-11 30 -22 62 -25 71 -4 12 8 22 45 38 90 38 159 50 281 48 114 -2 115 -3 128
-29z m88 -933 c24 -10 39 -25 50 -51 33 -79 -24 -118 -171 -119 -94 0 -143 16
-168 57 -27 42 31 91 133 114 75 17 114 17 156 -1z m-62 -397 c11 -62 26 -194
96 -813 74 -658 84 -756 155 -1480 25 -253 61 -605 80 -783 40 -369 41 -392
20 -392 -8 0 -15 4 -15 9 0 5 -16 128 -35 272 -123 945 -193 1557 -270 2369
-36 382 -68 723 -71 758 -4 43 -2 67 6 77 19 23 29 18 34 -17z"/>
<path d="M2015 6815 c7 -140 21 -207 68 -330 19 -49 40 -114 48 -143 9 -38 17
-52 28 -50 25 5 26 73 3 113 -11 18 -25 59 -32 92 -17 89 -101 406 -112 423
-6 9 -7 -29 -3 -105z"/>
<path d="M2296 5850 c10 -122 32 -262 50 -313 9 -27 32 -65 52 -84 l35 -36
108 6 c60 3 116 10 126 16 16 9 16 10 -7 19 -77 29 -158 72 -178 95 -13 14
-41 73 -62 132 -39 105 -69 166 -110 215 l-21 25 7 -75z"/>
<path d="M8150 1618 c-285 -18 -326 -27 -263 -58 49 -24 283 -24 578 -1 148
12 271 24 273 26 11 10 -13 24 -59 34 -58 13 -331 12 -529 -1z"/>
<path d="M6019 1217 c-77 -15 -106 -32 -88 -54 16 -19 631 -15 651 5 16 16 1
31 -48 44 -62 16 -438 19 -515 5z"/>
<path d="M8175 1190 c-187 -12 -238 -39 -129 -68 106 -29 890 -27 930 3 16 11
16 13 -7 28 -13 9 -58 20 -99 27 -100 14 -532 21 -695 10z"/>
<path d="M4304 1179 c-50 -4 -140 -19 -200 -33 -151 -34 -387 -109 -392 -124
-2 -7 5 -12 15 -12 48 0 1013 111 1046 121 42 11 44 27 6 46 -27 14 -324 16
-475 2z"/>
<path d="M2305 1109 c-191 -12 -327 -35 -482 -79 -151 -43 -311 -95 -321 -104
-26 -26 53 -19 458 39 454 66 530 79 588 96 33 11 43 33 18 42 -31 12 -137 15
-261 6z"/>
<path d="M6213 1070 c-62 -5 -159 -18 -215 -30 -156 -33 -420 -100 -437 -111
-13 -8 -12 -9 4 -5 114 31 454 51 710 43 200 -7 401 -30 625 -72 74 -13 190
-35 258 -47 l122 -22 29 22 c27 20 48 22 338 33 205 8 406 9 603 3 444 -12
497 -10 488 19 -12 36 -207 70 -505 87 -163 10 -215 9 -350 -4 l-158 -17 -113
26 c-156 35 -348 62 -536 74 -177 12 -689 12 -863 1z"/>
</g>
</svg>
